<svg xmlns="http://www.w3.org/2000/svg" width="192" height="192" viewBox="0 0 192 192">
  <rect width="192" height="192" rx="40" fill="#0B1E3D"/>
  <rect x="32" y="32" width="128" height="128" rx="24" fill="#C9A84C" opacity="0.15"/>
  <!-- Wrench icon centered -->
  <g transform="translate(60, 60) scale(3)">
    <path d="M14.7 6.3a1 1 0 0 0 0 1.4l1.6 1.6a1 1 0 0 0 1.4 0l3.77-3.77a6 6 0 0 1-7.94 7.94l-6.91 6.91a2.12 2.12 0 0 1-3-3l6.91-6.91a6 6 0 0 1 7.94-7.94l-3.76 3.76z" fill="#C9A84C" stroke="none"/>
  </g>
  <!-- AF initials -->
  <text x="96" y="145" font-family="serif" font-size="28" font-weight="bold" fill="white" text-anchor="middle" opacity="0.7">AF</text>
</svg>
